<?xml version="1.0" encoding="UTF-8" standalone="no"?><!DOCTYPE svg PUBLIC "-//W3C//DTD SVG 1.1//EN" "http://www.w3.org/Graphics/SVG/1.1/DTD/svg11.dtd"><svg width="100%" height="100%" viewBox="0 0 1596 405" version="1.1" xmlns="http://www.w3.org/2000/svg" xmlns:xlink="http://www.w3.org/1999/xlink" xml:space="preserve" xmlns:serif="http://www.serif.com/" style="fill-rule:evenodd;clip-rule:evenodd;stroke-linejoin:round;stroke-miterlimit:2;"><path d="M128.954,172.013c-0.787,1.275 -0.146,2.333 1.421,2.333l57.933,-0c1.567,-0 3.492,-1.058 4.275,-2.333l52.321,-85.392c0.788,-1.279 0.15,-2.334 -1.416,-2.334l-169.642,0c-1.563,0 -3.838,0.742 -5.046,1.638l-26.658,19.796c-1.205,0.887 -2.834,2.687 -3.621,3.962l-38.188,62.33c-0.779,1.275 -0.15,2.333 1.417,2.333l104.842,-0c1.562,-0 3.483,-1.058 4.279,-2.333l10.608,-17.321c0.788,-1.288 0.15,-2.334 -1.421,-2.334l-44.541,0c-1.563,0 -2.205,-1.05 -1.421,-2.337l24.704,-40.308c0.783,-1.288 2.713,-2.338 4.279,-2.338l62.625,-0c1.575,-0 2.213,1.05 1.421,2.338l-38.171,62.3Zm87.092,-0c-0.792,1.275 -0.159,2.333 1.417,2.333l54.587,-0c1.571,-0 3.496,-1.058 4.279,-2.333l38.188,-62.33c0.791,-1.275 2.716,-2.325 4.283,-2.325l17.079,0c1.571,0 2.2,1.05 1.417,2.325l-38.183,62.33c-0.792,1.275 -0.159,2.333 1.412,2.333l79.392,-0c1.558,-0 3.483,-1.058 4.271,-2.333l42.116,-68.734c0.788,-1.283 0.625,-3.404 -0.358,-4.708l-9,-11.908c-0.988,-1.309 -3.067,-2.376 -4.638,-2.376l-139.666,0c-1.571,0 -3.496,1.055 -4.284,2.334l-52.312,85.392Zm264.608,-0c-0.787,1.275 -2.716,2.333 -4.279,2.333l-67.317,-0c-1.575,-0 -2.212,-1.058 -1.429,-2.333l52.321,-85.392c0.788,-1.279 2.721,-2.334 4.283,-2.334l67.321,0c1.567,0 2.208,1.055 1.421,2.334l-52.321,85.392Zm75.988,-167.75c0.796,-1.288 2.712,-2.338 4.287,-2.338l217.371,-0c1.571,-0 2.208,1.05 1.417,2.338l-102.78,167.75c-0.783,1.275 -2.712,2.333 -4.279,2.333l-69.333,-0c-1.571,-0 -2.204,-1.058 -1.421,-2.333l89.329,-145.792c0.784,-1.279 0.15,-2.329 -1.421,-2.329l-18.416,-0c-1.571,-0 -3.496,1.05 -4.275,2.329l-89.329,145.792c-0.792,1.275 -2.717,2.333 -4.275,2.333l-66.659,-0c-1.566,-0 -2.204,-1.058 -1.42,-2.333l89.329,-145.792c0.791,-1.279 0.146,-2.329 -1.421,-2.329l-45.883,-0c-1.575,-0 -2.213,-1.05 -1.421,-2.338l10.6,-17.291Zm194.054,82.358c0.779,-1.279 2.704,-2.334 4.271,-2.334l80.058,0c1.563,0 2.192,1.055 1.408,2.334l-38.858,63.429c-0.792,1.283 -0.15,2.329 1.421,2.329l15.742,0c1.562,0 3.483,-1.046 4.275,-2.329l38.854,-63.429c0.787,-1.279 2.725,-2.334 4.287,-2.334l56.596,0c1.562,0 2.196,1.055 1.404,2.334l-52.316,85.392c-0.775,1.275 -2.709,2.333 -4.271,2.333l-139.667,-0c-1.567,-0 -3.708,-1.033 -4.758,-2.288l-10.1,-12.079c-1.05,-1.246 -1.263,-3.321 -0.475,-4.608l42.129,-68.75Zm371.479,20.737c1.558,0 3.5,-1.058 4.288,-2.341l6.916,-11.296c0.775,-1.288 0.354,-3.134 -0.962,-4.113l-4.792,-3.541c-1.304,-0.98 -3.671,-1.78 -5.229,-1.78l-142.359,0c-1.558,0 -3.945,0.575 -5.279,1.271l-39.716,20.529c-1.354,0.696 -3.092,2.321 -3.879,3.596l-17.326,28.284c-0.787,1.279 -0.154,2.333 1.409,2.333l122.429,0c1.567,0 2.217,1.05 1.429,2.329l-4.55,7.421c-0.783,1.283 -2.712,2.329 -4.271,2.329l-122.433,0c-1.562,0 -3.492,1.05 -4.275,2.342l-6.554,10.7c-0.788,1.279 -0.409,3.2 0.817,4.266l3.166,2.709c1.242,1.075 3.534,1.95 5.104,1.95l154.409,-0c1.558,-0 3.887,-0.667 5.141,-1.488l29.48,-18.991c1.266,-0.817 2.933,-2.534 3.724,-3.817l17.33,-28.283c0.791,-1.284 0.141,-2.334 -1.421,-2.334l-121.421,0c-1.562,0 -2.2,-1.05 -1.421,-2.337l4.558,-7.413c0.771,-1.275 2.7,-2.325 4.259,-2.325l121.429,0Zm60.513,64.655c-0.771,1.275 -2.713,2.333 -4.271,2.333l-67.329,-0c-1.563,-0 -2.201,-1.058 -1.409,-2.333l52.313,-85.392c0.787,-1.279 2.716,-2.334 4.275,-2.334l67.329,0c1.562,0 2.196,1.055 1.408,2.334l-52.316,85.392Zm200.32,-0c-0.783,1.275 -0.154,2.333 1.409,2.333l54.616,-0c1.546,-0 3.484,-1.058 4.259,-2.333l38.191,-62.33c0.796,-1.275 2.713,-2.325 4.28,-2.325l17.083,0c1.562,0 2.196,1.05 1.417,2.325l-38.188,62.33c-0.787,1.275 -0.146,2.333 1.417,2.333l79.383,-0c1.567,-0 3.496,-1.058 4.275,-2.333l42.117,-68.734c0.783,-1.283 0.629,-3.404 -0.363,-4.708l-8.996,-11.908c-0.975,-1.309 -3.05,-2.376 -4.629,-2.376l-139.671,0c-1.558,0 -3.496,1.055 -4.287,2.334l-52.313,85.392Zm-5.212,-85.521c-1.104,-1.213 -3.292,-2.205 -4.863,-2.205l-98.129,0c-1.575,0 -3.921,0.625 -5.212,1.401l-15.217,8.983c-1.292,0.775 -3.008,2.446 -3.779,3.729l-31.654,51.65c-0.788,1.283 -0.488,3.271 0.679,4.429l17.829,17.767c1.15,1.158 3.367,2.1 4.942,2.1l98.816,-0c1.563,-0 3.909,-0.638 5.188,-1.425l13.958,-8.438c1.288,-0.775 3,-2.466 3.767,-3.754l31.283,-51.046c0.788,-1.275 0.533,-3.32 -0.562,-4.525l-17.046,-18.666Zm-73.442,63.558c-0.783,1.283 -2.708,2.329 -4.271,2.329l-16.42,0c-1.559,0 -2.201,-1.046 -1.421,-2.329l24.737,-40.367c0.784,-1.275 2.717,-2.325 4.275,-2.325l16.421,0c1.55,0 2.196,1.05 1.408,2.325l-24.729,40.367Zm-762.175,-86.104c-0.783,1.275 -2.466,3 -3.725,3.817l-9.612,6.25c-1.25,0.82 -3.567,1.491 -5.142,1.491l-54.083,0c-1.567,0 -2.204,-1.046 -1.421,-2.333l11.271,-18.392c0.783,-1.283 2.712,-2.342 4.275,-2.342l62.633,0c1.571,0 2.208,1.059 1.417,2.342l-5.613,9.167Zm702.038,-0c-0.788,1.275 -2.467,3 -3.725,3.817l-9.605,6.25c-1.262,0.82 -3.575,1.491 -5.137,1.491l-54.087,0c-1.575,0 -2.213,-1.046 -1.434,-2.333l11.271,-18.392c0.792,-1.283 2.712,-2.342 4.279,-2.342l62.629,0c1.563,0 2.213,1.059 1.421,2.342l-5.612,9.167Z" style="fill:#231f20;fill-rule:nonzero;"/><path d="M1549.24,209.237l0,15.792l-13.558,1.35c9.433,3.909 12.088,9.321 12.088,14.738l-0,8.862c-0,17.592 -24.467,30.517 -58.954,30.517l-45.984,-0c-6.196,-0 -6.196,4.962 0,4.962l45.984,0c34.487,0 58.954,11.571 58.954,29.159l-53.942,-0c0,-2.409 -2.654,-3.313 -7.075,-3.313l-51.292,0c-59.833,0 -76.337,-24.654 -45.387,-40.129c-9.729,-5.721 -15.625,-13.083 -15.625,-21.196l-0,-8.862c-0,-17.596 28,-31.88 62.491,-31.88l112.3,0Zm-778.554,0l0,27.517l-33.6,0c-4.712,0 -8.546,1.95 -8.546,4.363l0,56.666l-53.941,0l-0,-56.666c-0,-17.596 28.004,-31.88 62.487,-31.88l33.6,0Zm71.35,88.546c-34.483,0 -62.491,-14.283 -62.491,-31.87l-0,-24.796c-0,-17.596 28.008,-31.88 62.491,-31.88l48.63,0c34.491,0 62.491,14.284 62.491,31.88l0,56.666l-53.937,0l-0,-56.666c-0,-2.413 -3.834,-4.363 -8.554,-4.363l-48.63,0c-4.716,0 -8.545,1.95 -8.545,4.363l-0,24.796c-0,2.404 3.829,4.366 8.545,4.366l48.63,0l-0,27.504l-48.63,0Zm185.729,0c-34.779,0 -62.787,-14.283 -62.787,-31.87l-0,-24.796c-0,-17.596 28.008,-31.88 62.787,-31.88l84.005,0l-0,27.517l-84.005,0c-5.012,0 -8.841,1.95 -8.841,4.363l-0,24.796c-0,2.404 3.829,4.366 8.841,4.366l84.005,0l-0,27.504l-84.005,0Zm96.113,0l0,-84.775l53.933,0l0,84.775l-53.933,0Zm128.217,-61.029c-4.713,0 -8.546,1.95 -8.546,4.363l-0,56.666l-53.938,0l0,-56.666c0,-17.596 28.004,-31.88 62.484,-31.88l48.341,0c34.484,0 62.492,14.284 62.492,31.88l-0,56.666l-53.942,0l0,-56.666c0,-2.413 -3.829,-4.363 -8.55,-4.363l-48.341,0Zm184.845,0c-4.72,0 -8.545,1.95 -8.545,4.363l-0,9.612c-0,2.408 3.825,4.363 8.545,4.363l48.338,-0c4.717,-0 8.55,-1.955 8.55,-4.363l0,-9.612c0,-2.413 -3.833,-4.363 -8.55,-4.363l-48.338,0Zm-313.062,-44.2l54.821,0l-0,16.683l-54.821,0l0,-16.683Z" style="fill:#231f20;fill-rule:nonzero;"/><path d="M496.242,199.054c3.746,-4.241 9.129,-6.671 14.787,-6.671l58.884,0c1.937,0 3.695,1.138 4.495,2.904c0.796,1.767 0.484,3.834 -0.8,5.288c-15.375,17.421 -51.566,58.425 -71.837,81.387c-8.229,9.321 -8.229,23.305 -0,32.625c20.271,22.963 56.462,63.967 71.837,81.388c1.284,1.454 1.596,3.521 0.8,5.287c-0.8,1.767 -2.558,2.905 -4.495,2.905l-58.884,-0c-5.658,-0 -11.041,-2.43 -14.787,-6.671c-14.505,-16.434 -52.296,-59.246 -73.184,-82.909c-8.225,-9.32 -8.225,-23.304 0,-32.625c20.888,-23.662 58.679,-66.475 73.184,-82.908Zm86.991,15.363c3.167,-3.584 7.717,-5.638 12.496,-5.638l49.771,0c1.638,0 3.125,0.959 3.8,2.454c0.671,1.492 0.408,3.242 -0.675,4.471c-12.996,14.721 -43.588,49.379 -60.721,68.788c-6.95,7.879 -6.95,19.695 0,27.575c17.133,19.408 47.725,54.066 60.721,68.787c1.083,1.229 1.346,2.979 0.675,4.471c-0.675,1.496 -2.162,2.454 -3.8,2.454l-49.771,0c-4.779,0 -9.329,-2.054 -12.496,-5.637c-12.258,-13.888 -44.2,-50.075 -61.854,-70.075c-6.95,-7.88 -6.95,-19.696 0,-27.575c17.654,-20 49.596,-56.188 61.854,-70.075Z" style="fill:#231f20;"/></svg>
